<?xml version="1.0" encoding="UTF-8"?>
<svg width="239px" height="60px" viewBox="0 0 239 60" version="1.1" xmlns="http://www.w3.org/2000/svg" xmlns:xlink="http://www.w3.org/1999/xlink">
    <!-- Generator: Sketch 50.2 (55047) - http://www.bohemiancoding.com/sketch -->
    <title>logo</title>
    <desc>Created with Sketch.</desc>
    <defs></defs>
    <g id="logo" stroke="none" stroke-width="1" fill="none" fill-rule="evenodd">
        <rect id="Rectangle" fill="#0FAADE" x="11" y="10" width="40" height="40" rx="4"></rect>
        <path d="M45,23 L41,23 L41,22.5 C41,20.025 38.975,18 36.5,18 C34.025,18 32,20.025 32,22.5 L32,27 L21,27 C21,32.115 24.496,36.402 29.226,37.633 L32.201,41.599 C32.397,41.862 32.698,41.999 33.002,41.999 C33.21,41.999 33.421,41.934 33.601,41.799 C34.043,41.468 34.132,40.841 33.801,40.4 L32.001,38 L34.502,38 L37.202,41.6 C37.398,41.863 37.699,42 38.003,42 C38.211,42 38.422,41.935 38.602,41.8 C39.044,41.469 39.133,40.842 38.802,40.401 L37.002,38.001 L37.502,38.001 C40.54,38.001 43.002,35.539 43.002,32.501 C43.002,30.793 42.223,29.267 41.002,28.258 L41.002,27 C43.209,27 45,25.209 45,23 Z M37,24 C36.448,24 36,23.552 36,23 C36,22.448 36.448,22 37,22 C37.552,22 38,22.448 38,23 C38,23.552 37.552,24 37,24 Z" id="duck" fill="#FFFFFF" fill-rule="nonzero"></path>
        <path d="M18,28 C18,30.3130537 18.6666667,32.3130537 20,34" id="Path-2" stroke="#FFFFFF" stroke-width="2" stroke-linecap="round" stroke-linejoin="round"></path>
        <path d="M85.1152176,31.5754717 C87.4566403,32.3522013 89.0586663,34.1100629 89.0586663,37.2578616 C89.0586663,42.1226415 85.4027607,45.0251572 78.5428031,45.0251572 C75.2155182,45.0251572 72.0114661,44.9842767 70.4915952,44.9433962 C68.3144829,44.9433962 67,43.5125786 67,40.9371069 L67,20.2515723 C67,17.9622642 68.1501725,16.490566 70.1218969,16.327044 C71.9703885,16.0408805 74.9690526,16 77.6390961,16 C85.3206056,16 89.0586663,19.1477987 89.0586663,25.0345912 C89.0586663,28.2641509 87.0047868,30.6761006 85.1152176,31.5754717 Z M77.5980185,21.5597484 C75.8727596,21.5597484 74.5582767,21.6006289 73.325949,21.6415094 L73.325949,29.6132075 L77.9677168,29.6132075 C80.3912946,29.6132075 82.7327173,28.3867925 82.7327173,25.5251572 C82.7327173,22.9496855 80.6788378,21.6006289 77.5980185,21.5597484 Z M78.5017255,39.9968553 C81.1717689,39.9968553 82.9381053,39.1383648 82.9381053,37.0943396 C82.9381053,35.2955975 81.459312,34.2735849 78.7071134,34.2735849 L73.325949,34.2735849 L73.325949,39.9559748 C74.6815095,39.9968553 76.4478459,39.9968553 78.5017255,39.9968553 Z M101.517199,45.2704403 C95.3555605,45.2704403 91.0424135,41.4685535 91.0424135,34.7641509 C91.0424135,28.1823899 95.3555605,24.2987421 101.517199,24.2987421 C107.719915,24.2987421 112.07414,28.1823899 112.07414,34.7641509 C112.07414,41.4685535 107.719915,45.2704403 101.517199,45.2704403 Z M101.558277,39.9559748 C104.187243,39.9559748 105.789269,38.0345912 105.789269,34.7641509 C105.789269,31.4119497 104.187243,29.572327 101.558277,29.572327 C98.9293109,29.572327 97.3272849,31.4119497 97.3272849,34.7641509 C97.3272849,38.0345912 98.9293109,39.9559748 101.558277,39.9559748 Z M123.998664,45.2704403 C117.837025,45.2704403 113.523878,41.4685535 113.523878,34.7641509 C113.523878,28.1823899 117.837025,24.2987421 123.998664,24.2987421 C130.20138,24.2987421 134.555605,28.1823899 134.555605,34.7641509 C134.555605,41.4685535 130.20138,45.2704403 123.998664,45.2704403 Z M124.039742,39.9559748 C126.668708,39.9559748 128.270734,38.0345912 128.270734,34.7641509 C128.270734,31.4119497 126.668708,29.572327 124.039742,29.572327 C121.410776,29.572327 119.80875,31.4119497 119.80875,34.7641509 C119.80875,38.0345912 121.410776,39.9559748 124.039742,39.9559748 Z M160.569743,24.0943396 C165.540131,24.0943396 167.963709,26.6289308 167.963709,31.4528302 L167.963709,41.6320755 C167.963709,43.8396226 166.936769,44.9433962 164.759657,44.9433962 C162.787933,44.9433962 161.678838,43.7987421 161.678838,41.6320755 L161.678838,32.6792453 C161.678838,30.5534591 160.569743,29.5314465 158.680174,29.5314465 C156.667372,29.5314465 155.558277,30.7578616 155.517199,32.7201258 L155.517199,41.6320755 C155.517199,43.8396226 154.531337,44.9433962 152.230992,44.9433962 C150.300345,44.9433962 149.232328,43.7987421 149.232328,41.6320755 L149.232328,32.6792453 C149.232328,30.5534591 148.082155,29.5314465 146.233664,29.5314465 C144.385172,29.5314465 143.111767,30.8396226 143.111767,32.8018868 L143.111767,41.6320755 C143.111767,43.8396226 141.879439,44.9433962 139.784482,44.9433962 C137.894913,44.9433962 136.785818,43.7987421 136.785818,41.6320755 L136.785818,27.4465409 C136.785818,25.7295597 137.853835,24.5031447 139.661249,24.5031447 C141.098965,24.5031447 141.961594,25.1981132 142.331292,26.2201258 C143.892241,24.5031447 145.905043,24.0943396 147.712457,24.0943396 C150.875431,24.0943396 153.093621,25.2389937 154.243794,26.9559748 C155.969053,24.6257862 158.310475,24.0943396 160.569743,24.0943396 Z M181.859958,24.2987421 C187.076812,24.2987421 191.266726,28.0188679 191.266726,34.6415094 C191.266726,41.4685535 187.076812,45.1886792 181.942113,45.1886792 C180.011466,45.1886792 178.491595,44.6572327 177.21819,43.8805031 L177.21819,51.5660377 C177.21819,53.6509434 176.150173,55 174.055215,55 C172.124569,55 170.892241,53.6509434 170.892241,51.5660377 L170.892241,27.9779874 C170.892241,25.6886792 171.960258,24.4622642 173.80875,24.4622642 C175.16431,24.4622642 175.985862,25.1163522 176.396638,26.3018868 C177.793276,25.1163522 179.60069,24.2987421 181.859958,24.2987421 Z M181.038406,39.9968553 C183.503061,39.9968553 184.981855,37.9937107 184.981855,34.6415094 C184.981855,31.4528302 183.503061,29.572327 181.038406,29.572327 C178.820216,29.572327 177.21819,31.4119497 177.21819,33.4968553 L177.21819,36.3176101 C177.21819,38.3616352 178.820216,39.9968553 181.038406,39.9968553 Z M202.862629,24.1352201 C208.736725,24.1352201 212.351553,27.6918239 212.351553,34.0283019 C212.351553,34.5597484 212.310475,35.2138365 212.187243,35.7861635 C212.022932,36.7264151 211.571079,37.4213836 210.051208,37.4213836 L199.001336,37.3805031 C199.740732,39.3018868 201.383836,40.3238994 203.560948,40.3238994 C204.916509,40.3238994 206.066682,39.9559748 206.888233,39.5062893 C207.381164,39.2610063 207.750863,39.1383648 208.367027,39.1383648 C210.092285,39.1383648 210.749527,40.2830189 210.749527,41.427673 C210.749527,42.572327 210.01013,43.2672956 208.98319,43.8805031 C207.504397,44.8207547 205.368362,45.3113208 203.109095,45.3113208 C197.193922,45.3113208 192.757542,41.3459119 192.757542,34.6415094 C192.757542,28.0188679 197.070689,24.1352201 202.862629,24.1352201 Z M202.862629,29.3679245 C200.603362,29.3679245 199.042413,30.5125786 198.631638,33.2515723 L206.765001,33.2515723 C206.641768,30.7578616 205.40944,29.3679245 202.862629,29.3679245 Z M227.397974,24.7893082 C228.260603,25.2389937 229,26.0974843 229,27.3238994 C229,29.2044025 227.849827,30.2264151 226.576422,30.2264151 C225.795948,30.2264151 225.261939,29.8176101 224.070689,29.8176101 C222.304353,29.8176101 220.907715,31.2484277 220.866637,33.2924528 L220.866637,41.509434 C220.866637,43.7169811 219.593232,44.9433962 217.621507,44.9433962 C215.690861,44.9433962 214.581766,43.7169811 214.581766,41.509434 L214.581766,27.8144654 C214.581766,25.7295597 215.690861,24.4622642 217.58043,24.4622642 C218.77168,24.4622642 219.79862,25.2389937 220.209396,26.5062893 C221.31849,25.1163522 222.879439,24.2169811 224.522543,24.2169811 C225.919181,24.2169811 226.740732,24.4622642 227.397974,24.7893082 Z" id="Boomper" fill="#000000"></path>
    </g>
</svg>