<?xml version="1.0" encoding="UTF-8"?>
<svg width="217px" height="60px" viewBox="0 0 217 60" version="1.1" xmlns="http://www.w3.org/2000/svg" xmlns:xlink="http://www.w3.org/1999/xlink">
    <!-- Generator: Sketch 50.2 (55047) - http://www.bohemiancoding.com/sketch -->
    <title>logo</title>
    <desc>Created with Sketch.</desc>
    <defs></defs>
    <g id="logo" stroke="none" stroke-width="1" fill="none" fill-rule="evenodd">
        <rect id="Rectangle" fill="#0FAADE" x="11" y="10" width="40" height="40" rx="4"></rect>
        <path d="M45,23 L41,23 L41,22.5 C41,20.025 38.975,18 36.5,18 C34.025,18 32,20.025 32,22.5 L32,27 L21,27 C21,32.115 24.496,36.402 29.226,37.633 L32.201,41.599 C32.397,41.862 32.698,41.999 33.002,41.999 C33.21,41.999 33.421,41.934 33.601,41.799 C34.043,41.468 34.132,40.841 33.801,40.4 L32.001,38 L34.502,38 L37.202,41.6 C37.398,41.863 37.699,42 38.003,42 C38.211,42 38.422,41.935 38.602,41.8 C39.044,41.469 39.133,40.842 38.802,40.401 L37.002,38.001 L37.502,38.001 C40.54,38.001 43.002,35.539 43.002,32.501 C43.002,30.793 42.223,29.267 41.002,28.258 L41.002,27 C43.209,27 45,25.209 45,23 Z M37,24 C36.448,24 36,23.552 36,23 C36,22.448 36.448,22 37,22 C37.552,22 38,22.448 38,23 C38,23.552 37.552,24 37,24 Z" id="duck" fill="#FFFFFF" fill-rule="nonzero"></path>
        <path d="M84.2434999,31.593 C86.5804999,32.372 88.1794999,34.135 88.1794999,37.292 C88.1794999,42.171 84.5304999,45.082 77.6834999,45.082 C74.3624999,45.082 71.1644999,45.041 69.6474999,45 C67.4744999,45 66.1624999,43.565 66.1624999,40.982 L66.1624999,20.236 C66.1624999,17.94 67.3104999,16.464 69.2784999,16.3 C71.1234999,16.013 74.1164999,15.972 76.7814999,15.972 C84.4484999,15.972 88.1794999,19.129 88.1794999,25.033 C88.1794999,28.272 86.1294999,30.691 84.2434999,31.593 Z M76.7404999,21.548 C75.0184999,21.548 73.7064999,21.589 72.4764999,21.63 L72.4764999,29.625 L77.1094999,29.625 C79.5284999,29.625 81.8654999,28.395 81.8654999,25.525 C81.8654999,22.942 79.8154999,21.589 76.7404999,21.548 Z M77.6424999,40.039 C80.3074999,40.039 82.0704999,39.178 82.0704999,37.128 C82.0704999,35.324 80.5944999,34.299 77.8474999,34.299 L72.4764999,34.299 L72.4764999,39.998 C73.8294999,40.039 75.5924999,40.039 77.6424999,40.039 Z M106.4775,24.5 C108.5275,24.5 109.7165,25.771 109.7165,27.944 L109.7165,41.925 C109.7165,43.893 108.6915,45.041 106.8055,45.041 C105.4525,45.041 104.5915,44.303 104.3045,42.95 C102.9515,44.426 101.1475,45.246 99.0154999,45.246 C94.5054999,45.246 90.9384999,42.827 90.9384999,37.128 L90.9384999,27.944 C90.9384999,25.689 92.0454999,24.5 93.9314999,24.5 C96.1454999,24.5 97.0884999,25.771 97.0884999,27.944 L97.0884999,36.841 C97.0884999,39.137 98.4004999,40.08 99.9584999,40.08 C102.0495,40.08 103.4845,38.645 103.5255,36.39 L103.5255,27.944 C103.5255,25.689 104.5095,24.5 106.4775,24.5 Z M136.3375,24.09 C141.2985,24.09 143.7175,26.632 143.7175,31.47 L143.7175,41.679 C143.7175,43.893 142.6925,45 140.5195,45 C138.5515,45 137.4445,43.852 137.4445,41.679 L137.4445,32.7 C137.4445,30.568 136.3375,29.543 134.4515,29.543 C132.4425,29.543 131.3355,30.773 131.2945,32.741 L131.2945,41.679 C131.2945,43.893 130.3105,45 128.0145,45 C126.0875,45 125.0215,43.852 125.0215,41.679 L125.0215,32.7 C125.0215,30.568 123.8735,29.543 122.0285,29.543 C120.1835,29.543 118.9125,30.855 118.9125,32.823 L118.9125,41.679 C118.9125,43.893 117.6825,45 115.5915,45 C113.7055,45 112.5985,43.852 112.5985,41.679 L112.5985,27.452 C112.5985,25.73 113.6645,24.5 115.4685,24.5 C116.9035,24.5 117.7645,25.197 118.1335,26.222 C119.6915,24.5 121.7005,24.09 123.5045,24.09 C126.6615,24.09 128.8755,25.238 130.0235,26.96 C131.7455,24.623 134.0825,24.09 136.3375,24.09 Z M157.5875,24.295 C162.7945,24.295 166.9765,28.026 166.9765,34.668 C166.9765,41.515 162.7945,45.246 157.6695,45.246 C155.7425,45.246 154.2255,44.713 152.9545,43.934 L152.9545,51.642 C152.9545,53.733 151.8885,55.086 149.7975,55.086 C147.8705,55.086 146.6405,53.733 146.6405,51.642 L146.6405,27.985 C146.6405,25.689 147.7065,24.459 149.5515,24.459 C150.9045,24.459 151.7245,25.115 152.1345,26.304 C153.5285,25.115 155.3325,24.295 157.5875,24.295 Z M156.7675,40.039 C159.2275,40.039 160.7035,38.03 160.7035,34.668 C160.7035,31.47 159.2275,29.584 156.7675,29.584 C154.5535,29.584 152.9545,31.429 152.9545,33.52 L152.9545,36.349 C152.9545,38.399 154.5535,40.039 156.7675,40.039 Z M178.5505,24.131 C184.4135,24.131 188.0215,27.698 188.0215,34.053 C188.0215,34.586 187.9805,35.242 187.8575,35.816 C187.6935,36.759 187.2425,37.456 185.7255,37.456 L174.6965,37.415 C175.4345,39.342 177.0745,40.367 179.2475,40.367 C180.6005,40.367 181.7485,39.998 182.5685,39.547 C183.0605,39.301 183.4295,39.178 184.0445,39.178 C185.7665,39.178 186.4225,40.326 186.4225,41.474 C186.4225,42.622 185.6845,43.319 184.6595,43.934 C183.1835,44.877 181.0515,45.369 178.7965,45.369 C172.8925,45.369 168.4645,41.392 168.4645,34.668 C168.4645,28.026 172.7695,24.131 178.5505,24.131 Z M178.5505,29.379 C176.2955,29.379 174.7375,30.527 174.3275,33.274 L182.4455,33.274 C182.3225,30.773 181.0925,29.379 178.5505,29.379 Z M203.0395,24.787 C203.9005,25.238 204.6385,26.099 204.6385,27.329 C204.6385,29.215 203.4905,30.24 202.2195,30.24 C201.4405,30.24 200.9075,29.83 199.7185,29.83 C197.9555,29.83 196.5615,31.265 196.5205,33.315 L196.5205,41.556 C196.5205,43.77 195.2495,45 193.2815,45 C191.3545,45 190.2475,43.77 190.2475,41.556 L190.2475,27.821 C190.2475,25.73 191.3545,24.459 193.2405,24.459 C194.4295,24.459 195.4545,25.238 195.8645,26.509 C196.9715,25.115 198.5295,24.213 200.1695,24.213 C201.5635,24.213 202.3835,24.459 203.0395,24.787 Z" id="Bumper" fill="#000000"></path>
        <path d="M18,28 C18,30.3670247 18.7036425,32.4136912 20.1109276,34.1399994" id="Path-2" stroke="#FFFFFF" stroke-width="2" stroke-linecap="round" stroke-linejoin="round"></path>
    </g>
</svg>